<?xml version="1.0" encoding="UTF-8" standalone="no"?>
<!DOCTYPE svg PUBLIC "-//W3C//DTD SVG 1.1//EN" "http://www.w3.org/Graphics/SVG/1.1/DTD/svg11.dtd">
<svg width="100%" height="100%" viewBox="0 0 22 18" fill="currentColor" stroke="none" xmlns="http://www.w3.org/2000/svg">
  <defs></defs>
  <path fill-rule="evenodd" clip-rule="evenodd" d="M 17.363 1.22296 C 17.7536 0.832497 18.3867 0.832593 18.7772 1.22318 C 20.8394 3.28598 21.9979 6.08337 21.9979 9.00018 C 21.9979 11.917 20.8394 14.7144 18.7772 16.7772 C 18.3867 17.1678 17.7536 17.1679 17.363 16.7774 C 16.9724 16.3869 16.9723 15.7538 17.3628 15.363199999999999 C 19.05 13.6754 19.9979 11.3867 19.9979 9.00018 C 19.9979 6.6137 19.05 4.32492 17.3628 2.63718 C 16.9723 2.24659 16.9724 1.61343 17.363 1.22296 Z" style=""></path>
  <path fill-rule="evenodd" clip-rule="evenodd" d="M 13.833 4.75296 C 14.2236 4.3625 14.8567 4.36259 15.2472 4.75318 C 16.372 5.87834 17.0039 7.40419 17.0039 8.99518 C 17.0039 10.5862 16.372 12.112 15.2472 13.2372 C 14.8567 13.6278 14.2236 13.6279 13.833 13.2374 C 13.4424 12.8469 13.4423 12.2138 13.8328 11.8232 C 14.582699999999999 11.0731 15.0039 10.0558 15.0039 8.99518 C 15.0039 7.93452 14.582699999999999 6.91729 13.8328 6.16718 C 13.4423 5.77659 13.4424 5.14343 13.833 4.75296 Z" style=""></path>
  <path fill-rule="evenodd" clip-rule="evenodd" d="M 9 4.081 L 5.625 6.781 C 5.447 6.923 5.227 7 5 7 L 2 7 L 2 11 L 5 11 C 5.227 11 5.447 11.078 5.625 11.219 L 9 13.92 L 9 4.081 Z M 10.433 1.099 C 10.78 1.2650000000000001 11 1.616 11 2 L 11 16 C 11 16.385 10.78 16.735 10.433 16.902 C 10.087 17.068 9.675 17.021 9.375 16.781 L 4.649 13 L 1 13 C 0.448 13 0 12.553 0 12 L 0 6 C 0 5.448 0.448 5 1 5 L 4.649 5 L 9.375 1.219 C 9.675 0.979 10.087 0.932 10.433 1.099 Z" style=""></path>
  <path d="M 21.404 15.918 L 19.72 17.602 L 1.114 2.236 L 2.798 0.552"></path>
</svg>
