<svg width="100%" height="100%" viewBox="0 0 57 34" version="1.1" xmlns="http://www.w3.org/2000/svg" xmlns:xlink="http://www.w3.org/1999/xlink" xml:space="preserve" xmlns:serif="http://www.serif.com/" style="fill-rule:evenodd;clip-rule:evenodd;stroke-linecap:round;stroke-linejoin:round;">
    <path d="M13.5,17L13.5,9.667" style="fill:none;fill-rule:nonzero;stroke:#fff;stroke-width:2.75px;"/>
    <path d="M24.5,17L24.5,13.333" style="fill:none;fill-rule:nonzero;stroke:#fff;stroke-width:2.75px;"/>
    <path d="M19,17L19,15.167" style="fill:none;fill-rule:nonzero;stroke:#fff;stroke-width:2.75px;"/>
    <path d="M2.5,2.333L35.5,2.333" style="fill:none;fill-rule:nonzero;stroke:#fff;stroke-width:2.75px;"/>
    <path d="M4.333,2.333L4.333,20.667C4.333,22.678 5.989,24.333 8,24.333L30,24.333C32.011,24.333 33.667,22.678 33.667,20.667L33.667,2.333" style="fill:none;fill-rule:nonzero;stroke:#fff;stroke-width:2.75px;"/>
    <path d="M19,24.333L19,31.667" style="fill:none;fill-rule:nonzero;stroke:#fff;stroke-width:2.75px;"/>
    <path d="M13.5,31.667L24.5,31.667" style="fill:none;fill-rule:nonzero;stroke:#fff;stroke-width:2.75px;"/>
    <path d="M42.172,17.556C42.172,19.872 44.017,21.778 46.258,21.778C48.5,21.778 50.344,19.872 50.344,17.556C50.344,15.239 48.5,13.333 46.258,13.333C44.017,13.333 42.172,15.239 42.172,17.556" style="fill:none;fill-rule:nonzero;stroke:#fff;stroke-width:2.5px;"/>
    <path d="M40.129,32.333L40.129,30.222C40.129,27.906 41.974,26 44.215,26L48.301,26C50.543,26 52.387,27.906 52.387,30.222L52.387,32.333" style="fill:none;fill-rule:nonzero;stroke:#fff;stroke-width:2.5px;"/>
</svg>
