<?xml version="1.0" encoding="UTF-8" standalone="no"?>
<!DOCTYPE svg PUBLIC "-//W3C//DTD SVG 1.1//EN" "http://www.w3.org/Graphics/SVG/1.1/DTD/svg11.dtd">
<svg width="100%" height="100%" viewBox="0 0 1024 1024" version="1.1" xmlns="http://www.w3.org/2000/svg" xmlns:xlink="http://www.w3.org/1999/xlink" xml:space="preserve" xmlns:serif="http://www.serif.com/" style="fill-rule:evenodd;clip-rule:evenodd;stroke-linejoin:round;stroke-miterlimit:2;">
    <rect id="Logo-Color" serif:id="Logo Color" x="0" y="0" width="1024" height="1024" style="fill:none;"/>
    <path d="M121.519,308.93L81.44,268.851C63.919,251.331 59.561,224.571 70.618,202.397L70.628,202.378C98.496,146.63 141.453,102.27 202.038,71.248C224.298,59.833 251.381,64.086 269.071,81.775C278.851,91.556 292.359,105.064 308.854,121.559C369.642,89.84 438.743,71.902 512,71.902C754.897,71.902 952.098,269.103 952.098,512C952.098,585.257 934.16,654.357 902.442,715.145L942.56,755.263C959.483,772.186 964.183,797.807 954.369,819.634C927.362,879.776 882.564,924.462 819.979,953.668C798.015,963.948 771.965,959.373 754.817,942.225C745.129,932.537 731.626,919.035 715.071,902.48C654.301,934.175 585.227,952.098 512,952.098C269.103,952.098 71.902,754.897 71.902,512C71.902,438.773 89.825,369.7 121.519,308.93ZM753.274,880.038C766.266,893.03 777.037,903.8 785.139,911.903C789.524,916.288 796.186,917.457 801.802,914.829L801.825,914.818C854.566,890.211 892.497,852.74 915.253,802.06L915.258,802.049C917.768,796.467 916.566,789.914 912.238,785.586L879.993,753.341C846.863,803.727 803.666,846.916 753.274,880.038ZM776.182,486.616L385.545,261.658C376.481,256.439 365.322,256.448 356.267,261.683C347.212,266.917 341.635,276.583 341.635,287.042L341.635,736.958C341.635,747.417 347.212,757.083 356.267,762.317C365.322,767.552 376.481,767.561 385.545,762.342L776.182,537.384C785.261,532.156 790.857,522.477 790.857,512C790.857,501.523 785.261,491.844 776.182,486.616ZM270.658,144.007C257.705,131.054 246.924,120.273 238.748,112.098C234.224,107.574 227.298,106.486 221.606,109.406L221.592,109.413C169.732,135.965 132.848,173.822 108.991,221.538C106.167,227.208 107.282,234.049 111.762,238.528L143.961,270.728C177.083,220.335 220.272,177.138 270.658,144.007Z" style="fill:rgb(224,171,27);"/>
</svg>
