<svg viewBox="1.25 -958.854 720 640" width="720" height="640" xmlns="http://www.w3.org/2000/svg">
  <defs></defs>
  <path d="M 61.25 -318.854 C 45.25 -318.854 31.25 -324.854 19.25 -336.854 C 7.25 -348.854 1.25 -362.854 1.25 -378.854 L 1.25 -898.854 C 1.25 -914.854 7.25 -928.854 19.25 -940.854 C 31.25 -952.854 45.25 -958.854 61.25 -958.854 L 661.25 -958.854 C 677.25 -958.854 691.25 -952.854 703.25 -940.854 C 715.25 -928.854 721.25 -914.854 721.25 -898.854 L 721.25 -378.854 C 721.25 -362.854 715.25 -348.854 703.25 -336.854 C 691.25 -324.854 677.25 -318.854 661.25 -318.854 L 61.25 -318.854 Z M 151.25 -519.854 L 293.25 -519.854 C 301.75 -519.854 308.875 -522.729 314.625 -528.479 C 320.375 -534.229 323.25 -541.354 323.25 -549.854 L 323.25 -569.854 C 323.25 -576.425 321.06 -581.902 316.679 -586.283 C 312.298 -590.664 306.821 -592.854 300.25 -592.854 L 296.25 -592.854 C 289.679 -592.854 284.202 -590.664 279.821 -586.283 C 275.44 -581.902 273.25 -576.425 273.25 -569.854 L 171.25 -569.854 L 171.25 -707.854 L 273.25 -707.854 C 273.25 -701.187 275.44 -695.687 279.821 -691.354 C 284.202 -687.021 289.679 -684.854 296.25 -684.854 L 300.25 -684.854 C 306.821 -684.854 312.298 -687.044 316.679 -691.425 C 321.06 -695.806 323.25 -701.283 323.25 -707.854 L 323.25 -727.854 C 323.25 -736.354 320.375 -743.479 314.625 -749.229 C 308.875 -754.979 301.75 -757.854 293.25 -757.854 L 151.25 -757.854 C 142.75 -757.854 135.625 -754.979 129.875 -749.229 C 124.125 -743.479 121.25 -736.354 121.25 -727.854 L 121.25 -549.854 C 121.25 -541.354 124.125 -534.229 129.875 -528.479 C 135.625 -522.729 142.75 -519.854 151.25 -519.854 Z M 572.25 -757.854 L 430.25 -757.854 C 421.75 -757.854 414.625 -754.979 408.875 -749.229 C 403.125 -743.479 400.25 -736.354 400.25 -727.854 L 400.25 -549.854 C 400.25 -541.354 403.125 -534.229 408.875 -528.479 C 414.625 -522.729 421.75 -519.854 430.25 -519.854 L 572.25 -519.854 C 580.75 -519.854 587.875 -522.729 593.625 -528.479 C 599.375 -534.229 602.25 -541.354 602.25 -549.854 L 602.25 -569.854 C 602.25 -576.425 600.06 -581.902 595.679 -586.283 C 591.298 -590.664 585.821 -592.854 579.25 -592.854 L 575.25 -592.854 C 568.679 -592.854 563.202 -590.664 558.821 -586.283 C 554.44 -581.902 552.25 -576.425 552.25 -569.854 L 450.25 -569.854 L 450.25 -707.854 L 552.25 -707.854 C 552.25 -701.187 554.44 -695.687 558.821 -691.354 C 563.202 -687.021 568.679 -684.854 575.25 -684.854 L 579.25 -684.854 C 585.821 -684.854 591.298 -687.044 595.679 -691.425 C 600.06 -695.806 602.25 -701.283 602.25 -707.854 L 602.25 -727.854 C 602.25 -736.354 599.375 -743.479 593.625 -749.229 C 587.875 -754.979 580.75 -757.854 572.25 -757.854 Z"></path>
</svg>